<svg width="100" height="100" viewBox="0 0 100 100" fill="none" xmlns="http://www.w3.org/2000/svg">
<path d="M42.16 28.6927C39.4815 27.2094 34.7459 16.8022 28.5 18.5C23.9555 19.7353 30.3233 33.2707 30.3233 33.2707C30.3233 33.2707 25.3763 52.0677 31.1428 62.6486C35.2405 70.1674 43.3183 69.0594 44.9843 74C46.6503 78.9406 42.9844 78.5 38.4843 77C35.5 76.0052 23.9843 70.5 22.4843 73C22.4843 76 44.9843 83.5226 44.9843 88.5C44.9843 95.2757 44.6374 98.4211 38.4843 100C21.215 100 -1.19918 81.6638 0.0500007 49.0662C1.61147 8.31918 32.6334 0 54.4941 0C76.3547 0 99.9843 13.4126 99.9843 49.0662C99.9843 86.8421 79.4958 100 72.1199 100C64.744 100 63.1049 92.4812 63.1049 92.4812C63.1049 92.4812 61.4659 87.782 61.4659 84.0226C61.4659 80.2632 60.8791 72.5625 65.5636 70.8647C70.248 69.1669 72.8092 68.8252 76.2176 62.6486C80.902 54.1596 81.2466 42.841 79.6851 35.4839C82.2876 29.8246 84.7475 21.2165 81 18.5C77.2525 15.7835 72.4076 23.0334 67.2026 28.6927C59.9158 29.8246 46.6859 31.1989 42.16 28.6927Z" fill="#3571f3"/>
</svg>
